<?xml version="1.0" encoding="UTF-8" standalone="no"?>
<svg
   xmlns:dc="http://purl.org/dc/elements/1.1/"
   xmlns:cc="http://creativecommons.org/ns#"
   xmlns:rdf="http://www.w3.org/1999/02/22-rdf-syntax-ns#"
   xmlns:svg="http://www.w3.org/2000/svg"
   xmlns="http://www.w3.org/2000/svg"
   xmlns:sodipodi="http://sodipodi.sourceforge.net/DTD/sodipodi-0.dtd"
   xmlns:inkscape="http://www.inkscape.org/namespaces/inkscape"
   version="1.1"
   x="0px"
   y="0px"
   viewBox="0 0 55 55"
   xml:space="preserve"
   id="svg8"
   sodipodi:docname="botany.svg"
   width="55"
   height="55"
   inkscape:version="0.92.3 (2405546, 2018-03-11)"><metadata
     id="metadata14"><rdf:RDF><cc:Work
         rdf:about=""><dc:format>image/svg+xml</dc:format><dc:type
           rdf:resource="http://purl.org/dc/dcmitype/StillImage" /><dc:title></dc:title></cc:Work></rdf:RDF></metadata><defs
     id="defs12" /><sodipodi:namedview
     pagecolor="#ffffff"
     bordercolor="#666666"
     borderopacity="1"
     objecttolerance="10"
     gridtolerance="10"
     guidetolerance="10"
     inkscape:pageopacity="0"
     inkscape:pageshadow="2"
     inkscape:window-width="1920"
     inkscape:window-height="1025"
     id="namedview10"
     showgrid="false"
     inkscape:zoom="3.9333333"
     inkscape:cx="24"
     inkscape:cy="30"
     inkscape:window-x="0"
     inkscape:window-y="27"
     inkscape:window-maximized="1"
     inkscape:current-layer="svg8" /><path
     d="m 39.959321,3.8983051 c -6.2,0.4 -10.2,5.2 -9.6,10.8999999 -0.9,1.2 -2,2.9 -2.8,5.6 -0.8,-2.7 -1.9,-4.5 -2.8,-5.6 0.5,-5.6999999 -3.5,-10.4999999 -9.6,-10.8999999 -1.6,6.2999999 2.1,11.7999999 8.4,12.5999999 0.9,1.2 1.9,3.1 2.5,6 h -5.6 c -1.5,0 -2.7,1.2 -2.7,2.7 0,1.5 1.2,2.7 2.7,2.7 v 0 16.8 c 0,3.9 3.2,7.1 7.1,7.1 3.9,0 7.1,-3.2 7.1,-7.1 v -16.7 0 c 1.5,0 2.7,-1.2 2.7,-2.7 0,-1.5 -1.2,-2.7 -2.7,-2.7 h -5.6 c 0.6,-2.9 1.6,-4.8 2.5,-6 6.3,-0.9 10,-6.4 8.4,-12.6999999 z m -7.4,40.8999999 c 0,2.7 -2.2,5 -5,5 -2.8,0 -5,-2.2 -5,-5 v -8.9 c 3.3,-1.5 5.5,2.6 10,0 z"
     id="path2"
     inkscape:connector-curvature="0" /></svg>