<?xml version="1.0" encoding="UTF-8" standalone="no"?>
<svg
   xmlns:dc="http://purl.org/dc/elements/1.1/"
   xmlns:cc="http://creativecommons.org/ns#"
   xmlns:rdf="http://www.w3.org/1999/02/22-rdf-syntax-ns#"
   xmlns:svg="http://www.w3.org/2000/svg"
   xmlns="http://www.w3.org/2000/svg"
   xmlns:sodipodi="http://sodipodi.sourceforge.net/DTD/sodipodi-0.dtd"
   xmlns:inkscape="http://www.inkscape.org/namespaces/inkscape"
   version="1.1"
   x="0px"
   y="0px"
   viewBox="0 0 55 55"
   enable-background="new 0 0 100 100"
   xml:space="preserve"
   id="svg14"
   sodipodi:docname="enter.svg"
   width="55"
   height="55"
   inkscape:version="0.92.3 (2405546, 2018-03-11)"><metadata
     id="metadata20"><rdf:RDF><cc:Work
         rdf:about=""><dc:format>image/svg+xml</dc:format><dc:type
           rdf:resource="http://purl.org/dc/dcmitype/StillImage" /><dc:title></dc:title></cc:Work></rdf:RDF></metadata><defs
     id="defs18" /><sodipodi:namedview
     pagecolor="#ffffff"
     bordercolor="#666666"
     borderopacity="1"
     objecttolerance="10"
     gridtolerance="10"
     guidetolerance="10"
     inkscape:pageopacity="0"
     inkscape:pageshadow="2"
     inkscape:window-width="867"
     inkscape:window-height="480"
     id="namedview16"
     showgrid="false"
     inkscape:zoom="1.888"
     inkscape:cx="51.755198"
     inkscape:cy="61.232825"
     inkscape:window-x="0"
     inkscape:window-y="27"
     inkscape:window-maximized="0"
     inkscape:current-layer="svg14" /><path
     d="m 46.402542,5.869492 c 0,-2 -2,-3.6 -4,-3.6 -2,0 -4,1.6 -4,3.6 v 27.8 h -17.2 l 5,-5 c 1.4,-1.4 1.1,-4 -0.3,-5.4 -1.4,-1.4 -4,-1.7 -5.4,-0.3 l -11.5999996,11.7 c -0.2,0.2 -0.4,0.5 -0.5,0.8 -0.4,0.7 -0.7,1.4 -0.7,2.2 0,0.8 0.3,1.6 0.7,2.2 0.1,0.3 0.3,0.6 0.5,0.8 l 11.6999996,11.7 c 1.4,1.4 4,1.1 5.4,-0.3 1.4,-1.4 1.7,-4 0.3,-5.4 l -5,-5 h 21.6 c 2,0 3.6,-2 3.6,-4 0,0 0,-0.1 0,-0.1 0,0 0,-0.1 0,-0.1 v -31.6 z"
     id="path2"
     inkscape:connector-curvature="0" /><g
     id="g8"
     transform="translate(-19.597458,-22.330508)"><path
       d="m 36.8,57 c 0.1,0 0.2,0 0.3,0.1 C 37,57 36.9,57 36.8,57 Z"
       id="path4"
       inkscape:connector-curvature="0"
       style="fill:none" /><path
       d="m 36,59.2 c -0.3,-0.2 -0.5,-0.5 -0.5,-0.8 0,0.4 0.2,0.7 0.5,0.8 z"
       id="path6"
       inkscape:connector-curvature="0"
       style="fill:none" /></g></svg>