<?xml version="1.0" encoding="UTF-8" standalone="no"?>
<svg
   xmlns:x="adobe:ns:meta/"
   xmlns:dc="http://purl.org/dc/elements/1.1/"
   xmlns:cc="http://creativecommons.org/ns#"
   xmlns:rdf="http://www.w3.org/1999/02/22-rdf-syntax-ns#"
   xmlns:svg="http://www.w3.org/2000/svg"
   xmlns="http://www.w3.org/2000/svg"
   xmlns:sodipodi="http://sodipodi.sourceforge.net/DTD/sodipodi-0.dtd"
   xmlns:inkscape="http://www.inkscape.org/namespaces/inkscape"
   version="1.1"
   x="0px"
   y="0px"
   viewBox="0 0 100 100"
   enable-background="new 0 0 100 100"
   xml:space="preserve"
   id="svg10"
   sodipodi:docname="fire-white.svg"
   width="100"
   height="100"
   inkscape:version="0.92.3 (2405546, 2018-03-11)"
   inkscape:export-filename="/home/ed/Dev/getlarge.eu/frontin/static/icons/noun_Fire_381129.svg.png"
   inkscape:export-xdpi="576"
   inkscape:export-ydpi="576"><defs
     id="defs14" /><sodipodi:namedview
     pagecolor="#ffffff"
     bordercolor="#666666"
     borderopacity="1"
     objecttolerance="10"
     gridtolerance="10"
     guidetolerance="10"
     inkscape:pageopacity="0"
     inkscape:pageshadow="2"
     inkscape:window-width="1920"
     inkscape:window-height="1025"
     id="namedview12"
     showgrid="false"
     inkscape:zoom="1.888"
     inkscape:cx="50"
     inkscape:cy="62.5"
     inkscape:window-x="0"
     inkscape:window-y="27"
     inkscape:window-maximized="1"
     inkscape:current-layer="svg10" /><metadata
     id="metadata2"><?xpacket begin="&#65279;" id="W5M0MpCehiHzreSzNTczkc9d"?><x:xmpmeta
       x:xmptk="Adobe XMP Core 5.6-c111 79.158366, 2015/09/25-01:12:00        " /><?xpacket end="w"?><rdf:RDF><cc:Work
         rdf:about=""><dc:format>image/svg+xml</dc:format><dc:type
           rdf:resource="http://purl.org/dc/dcmitype/StillImage" /><dc:title></dc:title></cc:Work></rdf:RDF></metadata><path
     d="m 49.997644,15.586729 c -0.128,7.099 5.043,12.007 9.791,16.514 5.37,5.097 10.922,10.368 11.581,19.645 0.618,8.696 -1.851,17.163 -7.141,24.485 -3.732,5.166 -8.801,9.657 -14.595,12.992 -1.747,-9.197 -7.45,-14.847 -12.585,-19.934 -4.79,-4.745 -8.926,-8.843 -9.719,-15.313 -0.326,-2.662 0.28,-6.415 1.401,-10.019 1.353,3.192 3.502,5.858 6.381,7.814 l 8.362,5.681 -2.211,-9.864 c -2.358,-10.522 -1.415,-18.86 2.883,-25.491 1.611,-2.487 3.634,-4.631 5.852,-6.51 m 8.118,-10.1630002 c -12.756,7.0380002 -26.529,17.2740002 -20.756,43.0380002 -5.666,-3.85 -7.039,-10.86 -5.97,-17.487 -5.034,4.54 -8.853,16.781 -8.03,23.487 2.102,17.147 23,20 22.811,40.962 16.409,-7.056 30.664,-23.226 29.189,-43.962 -1.729,-24.325 -32.104,-24.872 -17.244,-46.0380002 z"
     id="path4"
     inkscape:connector-curvature="0"
     style="fill:#f9f9f9" /></svg>