<?xml version="1.0" encoding="UTF-8" standalone="no"?>
<svg
   xmlns:dc="http://purl.org/dc/elements/1.1/"
   xmlns:cc="http://creativecommons.org/ns#"
   xmlns:rdf="http://www.w3.org/1999/02/22-rdf-syntax-ns#"
   xmlns:svg="http://www.w3.org/2000/svg"
   xmlns="http://www.w3.org/2000/svg"
   xmlns:sodipodi="http://sodipodi.sourceforge.net/DTD/sodipodi-0.dtd"
   xmlns:inkscape="http://www.inkscape.org/namespaces/inkscape"
   version="1.1"
   x="0px"
   y="0px"
   viewBox="0 0 52 52"
   enable-background="new 0 0 48 48"
   xml:space="preserve"
   id="svg32"
   sodipodi:docname="forrest-white.svg"
   width="52"
   height="52"
   inkscape:version="0.92.3 (2405546, 2018-03-11)"><metadata
     id="metadata38"><rdf:RDF><cc:Work
         rdf:about=""><dc:format>image/svg+xml</dc:format><dc:type
           rdf:resource="http://purl.org/dc/dcmitype/StillImage" /><dc:title></dc:title></cc:Work></rdf:RDF></metadata><defs
     id="defs36" /><sodipodi:namedview
     pagecolor="#ffffff"
     bordercolor="#666666"
     borderopacity="1"
     objecttolerance="10"
     gridtolerance="10"
     guidetolerance="10"
     inkscape:pageopacity="0"
     inkscape:pageshadow="2"
     inkscape:window-width="1920"
     inkscape:window-height="1025"
     id="namedview34"
     showgrid="false"
     inkscape:zoom="3.9333333"
     inkscape:cx="26.829867"
     inkscape:cy="30"
     inkscape:window-x="0"
     inkscape:window-y="27"
     inkscape:window-maximized="1"
     inkscape:current-layer="svg32" /><g
     id="g26"
     style="fill:#f2f2f2"
     transform="translate(2.0338983,1.6610169)"><g
       id="g10"
       style="fill:#f2f2f2"><g
         id="g4"
         style="fill:#f2f2f2"><path
           d="m 16.1,41.3 c -1.7,0 -3.4,-0.7 -4.6,-2 -1.2,1.3 -2.8,2 -4.6,2 -3.6,0 -6.5,-3.1 -6.5,-7 0,-2.4 1.1,-4.6 3,-5.9 C 3,27.6 2.7,26.7 2.7,25.8 2.7,23.3 4.4,21.3 6.6,20.9 6.5,20.5 6.5,20.1 6.5,19.7 c 0,-2.9 2.2,-5.3 5,-5.3 2.7,0 5,2.4 5,5.3 0,0.4 0,0.8 -0.1,1.2 2.2,0.3 3.9,2.4 3.9,4.9 0,0.9 -0.2,1.8 -0.7,2.6 1.8,1.3 3,3.5 3,5.9 0,3.9 -2.9,7 -6.5,7 z m -4.6,-5.4 0.8,1.3 c 0.9,1.3 2.2,2.2 3.7,2.2 2.5,0 4.5,-2.3 4.5,-5 0,-2.1 -1.1,-3.9 -2.9,-4.7 l -1.3,-0.6 1,-1 c 0.6,-0.6 0.9,-1.4 0.9,-2.2 0,-1.8 -1.5,-3.3 -3.2,-2.9 l -2,0.5 1.1,-1.9 c 0.3,-0.5 0.5,-1.1 0.5,-1.8 0,-1.9 -1.4,-3.4 -3,-3.4 -1.7,0 -3,1.5 -3,3.4 0,0.6 0.2,1.2 0.5,1.8 L 10.2,23.5 7.9,23 c -1.6,-0.4 -3.2,1.1 -3.2,2.9 0,0.8 0.3,1.6 0.9,2.2 l 1,1 -1.3,0.6 c -1.7,0.8 -2.9,2.6 -2.9,4.7 0,2.8 2,5 4.5,5 1.5,0 2.9,-0.8 3.7,-2.2 z"
           id="path2"
           inkscape:connector-curvature="0"
           style="fill:#f2f2f2" /></g><g
         id="g8"
         style="fill:#f2f2f2"><rect
           x="10.5"
           y="37.700001"
           width="2"
           height="8.8999996"
           id="rect6"
           style="fill:#f2f2f2" /></g></g><g
       id="g20"
       style="fill:#f2f2f2"><g
         id="g14"
         style="fill:#f2f2f2"><path
           d="m 46.6,37.4 c -0.1,0 -0.2,0 -0.3,0 -2.3,-0.8 -8.7,-2.7 -10.9,-2.7 -2.2,0 -8.6,2 -10.9,2.7 -0.4,0.1 -0.8,0 -1.1,-0.3 -0.3,-0.3 -0.3,-0.7 -0.1,-1.1 l 4.9,-8.8 c -0.2,0.1 -0.3,0.1 -0.3,0.1 -0.4,0.1 -0.8,0 -1.1,-0.2 -0.3,-0.3 -0.3,-0.7 -0.2,-1.1 l 3.3,-6.9 c -0.3,0 -0.6,0 -0.8,-0.2 -0.3,-0.3 -0.4,-0.7 -0.3,-1.1 L 34.4,1.2 c 0.1,-0.4 0.5,-0.7 0.9,-0.7 0.4,0 0.8,0.3 0.9,0.7 l 5.6,16.4 c 0.1,0.1 0.1,0.3 0.1,0.5 0,0.5 -0.4,1 -1,1 0,0 0,0 0,0 -0.1,0 -0.1,0 -0.2,0 l 3.2,6.7 c 0.1,0.2 0.2,0.4 0.2,0.6 0,0.5 -0.4,1 -1,1 0,0 0,0 0,0 -0.1,0 -0.2,0 -0.4,-0.1 0,0 -0.1,0 -0.3,-0.1 l 4.9,8.8 c 0.2,0.4 0.2,0.8 -0.1,1.1 -0.1,0.1 -0.3,0.3 -0.6,0.3 z M 30.3,24.3 c 0.3,0 0.6,0.1 0.8,0.4 0.3,0.3 0.3,0.8 0.1,1.1 l -5,9 c 2.8,-0.8 7.2,-2.1 9.2,-2.1 2,0 6.4,1.3 9.2,2.1 l -5,-9 c -0.2,-0.4 -0.2,-0.8 0.1,-1.1 0.3,-0.3 0.7,-0.4 1.1,-0.3 0.2,0.1 0.4,0.1 0.5,0.2 l -3.4,-7.2 c -0.2,-0.4 -0.1,-0.8 0.2,-1.1 0.3,-0.3 0.7,-0.4 1.1,-0.2 0,0 0.1,0 0.1,0.1 L 35.3,4.5 31.4,16 c 0,0 0.1,0 0.1,-0.1 0.4,-0.2 0.8,-0.1 1.1,0.2 0.3,0.3 0.4,0.7 0.2,1.1 l -3.4,7.2 c 0.2,-0.1 0.4,-0.1 0.5,-0.2 0.2,0.1 0.3,0.1 0.4,0.1 z"
           id="path12"
           inkscape:connector-curvature="0"
           style="fill:#f2f2f2" /></g><g
         id="g18"
         style="fill:#f2f2f2"><rect
           x="34.400002"
           y="33.599998"
           width="2"
           height="13"
           id="rect16"
           style="fill:#f2f2f2" /></g></g><g
       id="g24"
       style="fill:#f2f2f2"><rect
         x="1.4"
         y="45.599998"
         width="45.099998"
         height="2"
         id="rect22"
         style="fill:#f2f2f2" /></g></g></svg>