<svg xmlns="http://www.w3.org/2000/svg" xmlns:xlink="http://www.w3.org/1999/xlink" version="1.1" x="0px" y="0px" viewBox="0 0 100 125" enable-background="new 0 0 100 100" xml:space="preserve"><g><g><path d="M85.7,52H85c-0.8,0-1.5,0.7-1.5,1.5S84.2,55,85,55h0.7c0.8,0,1.5-0.7,1.5-1.5S86.5,52,85.7,52z"/><path d="M80,52H65c-0.8,0-1.5,0.7-1.5,1.5S64.2,55,65,55h15c0.8,0,1.5-0.7,1.5-1.5S80.8,52,80,52z"/><path d="M28.2,59.1c-0.8,0-1.5,0.7-1.5,1.5c0,3.1-2.5,5.6-5.6,5.6c-3.1,0-5.6-2.5-5.6-5.6c0-3.1,2.5-5.6,5.6-5.6H59    c0.8,0,1.5-0.7,1.5-1.5S59.8,52,59,52H21.1c-4.7,0-8.6,3.9-8.6,8.6s3.9,8.6,8.6,8.6s8.6-3.9,8.6-8.6C29.7,59.8,29,59.1,28.2,59.1z    "/><path d="M77.9,61H77c-0.8,0-1.5,0.7-1.5,1.5S76.2,64,77,64h0.9c0.8,0,1.5-0.7,1.5-1.5S78.7,61,77.9,61z"/><path d="M71,61H46.1c-0.8,0-1.5,0.7-1.5,1.5s0.7,1.5,1.5,1.5H71c0.8,0,1.5-0.7,1.5-1.5S71.8,61,71,61z"/><path d="M69,46h1.1c0.8,0,1.5-0.7,1.5-1.5S70.9,43,70.1,43H69c-0.8,0-1.5,0.7-1.5,1.5S68.2,46,69,46z"/><path d="M30.2,46H63c0.8,0,1.5-0.7,1.5-1.5S63.8,43,63,43H30.2c-3.1,0-5.6-2.5-5.6-5.6c0-3.1,2.5-5.6,5.6-5.6    c3.1,0,5.6,2.5,5.6,5.6c0,0.8,0.7,1.5,1.5,1.5s1.5-0.7,1.5-1.5c0-4.7-3.9-8.6-8.6-8.6s-8.6,3.9-8.6,8.6S25.5,46,30.2,46z"/></g></g><text x="0" y="115" fill="#000000" font-size="5px" font-weight="bold" font-family="'Helvetica Neue', Helvetica, Arial-Unicode, Arial, Sans-serif">Created by Austin Condiff</text><text x="0" y="120" fill="#000000" font-size="5px" font-weight="bold" font-family="'Helvetica Neue', Helvetica, Arial-Unicode, Arial, Sans-serif">from the Noun Project</text></svg>