<?xml version="1.0" encoding="UTF-8" standalone="no"?>
<svg
   xmlns:dc="http://purl.org/dc/elements/1.1/"
   xmlns:cc="http://creativecommons.org/ns#"
   xmlns:rdf="http://www.w3.org/1999/02/22-rdf-syntax-ns#"
   xmlns:svg="http://www.w3.org/2000/svg"
   xmlns="http://www.w3.org/2000/svg"
   xmlns:sodipodi="http://sodipodi.sourceforge.net/DTD/sodipodi-0.dtd"
   xmlns:inkscape="http://www.inkscape.org/namespaces/inkscape"
   version="1.1"
   x="0px"
   y="0px"
   viewBox="0 0 100 100"
   enable-background="new 0 0 100 100"
   xml:space="preserve"
   id="svg18"
   sodipodi:docname="rain.svg"
   width="100"
   height="100"
   inkscape:version="0.92.3 (2405546, 2018-03-11)"><metadata
     id="metadata24"><rdf:RDF><cc:Work
         rdf:about=""><dc:format>image/svg+xml</dc:format><dc:type
           rdf:resource="http://purl.org/dc/dcmitype/StillImage" /><dc:title></dc:title></cc:Work></rdf:RDF></metadata><defs
     id="defs22" /><sodipodi:namedview
     pagecolor="#ffffff"
     bordercolor="#666666"
     borderopacity="1"
     objecttolerance="10"
     gridtolerance="10"
     guidetolerance="10"
     inkscape:pageopacity="0"
     inkscape:pageshadow="2"
     inkscape:window-width="1920"
     inkscape:window-height="1025"
     id="namedview20"
     showgrid="false"
     inkscape:zoom="3.776"
     inkscape:cx="31.931565"
     inkscape:cy="25.285132"
     inkscape:window-x="0"
     inkscape:window-y="27"
     inkscape:window-maximized="1"
     inkscape:current-layer="svg18" /><path
     d="m 77.175847,21.923729 c 0,-0.1 -0.1,-0.3 -0.2,-0.4 -0.1,-0.3 -0.3,-0.6 -0.4,-1 -0.1,-0.3 -0.2,-0.6 -0.4,-0.9 -0.2,-0.3 -0.3,-0.6 -0.5,-1 -0.2,-0.3 -0.3,-0.6 -0.5,-1 0,-0.1 -0.1,-0.1 -0.1,-0.2 -4.3,-7.3 -12.4,-12.0000002 -21.4,-12.0000002 -10,0 -19,6.0000002 -23,15.1000002 -0.2,0 -0.3,0 -0.5,0 -0.3,0 -0.6,0 -0.9,0 -0.2,0 -0.4,0 -0.6,0 -2,0 -4,0.3 -5.9,0.7 0,0 -0.1,0 -0.1,0 -0.7,0.2 -1.4,0.4 -2.1,0.6 -0.1,0 -0.1,0 -0.2,0.1 -0.3,0.1 -0.5,0.2 -0.8,0.3 -0.2,0.1 -0.3,0.1 -0.5,0.2 -0.1,0 -0.3,0 -0.4,0.1 -0.2,0.1 -0.5,0.2 -0.7,0.3 -0.1,0 -0.2,0.1 -0.2,0.1 -2.4,1.2 -4.7,2.8 -6.7,4.8 0,0 -0.1,0.1 -0.1,0.1 -4.4999995,4.6 -7.2999995,10.8 -7.2999995,17.6 0,13.8 11.1999995,25 24.9999995,25 h 40 c 13.8,0 25,-11.2 25,-25 0,-10.7 -6.6,-19.9 -16.5,-23.5 z m -8.5,43.5 h -40 c -11,0 -19.9999995,-9 -19.9999995,-20 0,-5.8 2.4999995,-11 6.3999995,-14.6 0.2,-0.2 0.4,-0.4 0.6,-0.6 0.2,-0.2 0.4,-0.3 0.5,-0.5 0.4,-0.3 0.8,-0.6 1.2,-0.9 0,0 0.1,0 0.1,-0.1 0.4,-0.3 0.8,-0.5 1.3,-0.8 0.2,-0.1 0.3,-0.2 0.5,-0.3 0.3,-0.2 0.7,-0.3 1,-0.5 0.3,-0.1 0.5,-0.3 0.8,-0.4 0.3,-0.1 0.5,-0.2 0.8,-0.3 0.4,-0.1 0.7,-0.3 1.1,-0.4 0.2,0 0.3,-0.1 0.5,-0.1 0.5,-0.1 1,-0.3 1.4,-0.4 0,0 0.1,0 0.1,0 1.9,-0.3 3.7,-0.4 5.6,-0.3 0.1,0 0.1,0 0.2,0 4.4,0.5 8.7,2.4 12.1,5.7 0.5,0.5 1.1,0.7 1.8,0.7 0.7,0 1.3,-0.2 1.8,-0.7 1,-1 1,-2.6 0,-3.5 -3,-3 -6.7,-5.1 -10.5,-6.3 3.4,-6.7 10.2,-11 17.9,-11 5.4,0 10.4,2.1 14,5.7 0,0 0.1,0.1 0.1,0.1 1.4,1.4 2.6,3 3.5,4.7 0,0.1 0.1,0.1 0.1,0.2 0.3,0.5 0.5,1.1 0.8,1.7 0,0 0,0 0,0 2.9,7.2 1.5,15.8 -4.4,21.7 -1,1 -1,2.6 0,3.5 0.5,0.5 1.1,0.7 1.8,0.7 0.7,0 1.3,-0.2 1.8,-0.7 5.5,-5.5 7.9,-12.9 7.2,-20.1 6,3.9 9.9,10.4 9.9,17.8 0,11 -9,20 -20,20 z"
     id="path2"
     inkscape:connector-curvature="0" /><path
     d="m 29.775847,73.223729 c -1.2,-0.6 -2.7,-0.1 -3.4,1.1 l -2.5,5 c -0.6,1.2 -0.1,2.7 1.1,3.4 0.4,0.2 0.7,0.3 1.1,0.3 0.9,0 1.8,-0.5 2.2,-1.4 l 2.5,-5 c 0.8,-1.3 0.3,-2.8 -1,-3.4 z"
     id="path4"
     inkscape:connector-curvature="0" /><path
     d="m 79.775847,73.223729 c -1.2,-0.6 -2.7,-0.1 -3.4,1.1 l -2.5,5 c -0.6,1.2 -0.1,2.7 1.1,3.4 0.4,0.2 0.7,0.3 1.1,0.3 0.9,0 1.8,-0.5 2.2,-1.4 l 2.5,-5 c 0.8,-1.3 0.3,-2.8 -1,-3.4 z"
     id="path6"
     inkscape:connector-curvature="0" /><path
     d="m 54.775847,73.223729 c -1.2,-0.6 -2.7,-0.1 -3.4,1.1 l -2.5,5 c -0.6,1.2 -0.1,2.7 1.1,3.4 0.4,0.2 0.7,0.3 1.1,0.3 0.9,0 1.8,-0.5 2.2,-1.4 l 2.5,-5 c 0.8,-1.3 0.3,-2.8 -1,-3.4 z"
     id="path8"
     inkscape:connector-curvature="0" /><path
     d="m 39.775847,85.723729 c -1.2,-0.6 -2.7,-0.1 -3.4,1.1 l -2.5,5 c -0.6,1.2 -0.1,2.7 1.1,3.4 0.4,0.2 0.7,0.3 1.1,0.3 0.9,0 1.8,-0.5 2.2,-1.4 l 2.5,-5 c 0.8,-1.3 0.3,-2.8 -1,-3.4 z"
     id="path10"
     inkscape:connector-curvature="0" /><path
     d="m 64.775847,85.723729 c -1.2,-0.6 -2.7,-0.1 -3.4,1.1 l -2.5,5 c -0.6,1.2 -0.1,2.7 1.1,3.4 0.4,0.2 0.7,0.3 1.1,0.3 0.9,0 1.8,-0.5 2.2,-1.4 l 2.5,-5 c 0.8,-1.3 0.3,-2.8 -1,-3.4 z"
     id="path12"
     inkscape:connector-curvature="0" /></svg>