<?xml version="1.0" encoding="UTF-8" standalone="no"?>
<svg
   xmlns:dc="http://purl.org/dc/elements/1.1/"
   xmlns:cc="http://creativecommons.org/ns#"
   xmlns:rdf="http://www.w3.org/1999/02/22-rdf-syntax-ns#"
   xmlns:svg="http://www.w3.org/2000/svg"
   xmlns="http://www.w3.org/2000/svg"
   xmlns:sodipodi="http://sodipodi.sourceforge.net/DTD/sodipodi-0.dtd"
   xmlns:inkscape="http://www.inkscape.org/namespaces/inkscape"
   version="1.1"
   x="0px"
   y="0px"
   viewBox="0 0 100 100"
   enable-background="new 0 0 100 100"
   xml:space="preserve"
   id="svg244"
   sodipodi:docname="Random Dither.svg"
   width="100"
   height="100"
   inkscape:version="0.92.3 (2405546, 2018-03-11)"><metadata
     id="metadata250"><rdf:RDF><cc:Work
         rdf:about=""><dc:format>image/svg+xml</dc:format><dc:type
           rdf:resource="http://purl.org/dc/dcmitype/StillImage" /><dc:title></dc:title></cc:Work></rdf:RDF></metadata><defs
     id="defs248" /><sodipodi:namedview
     pagecolor="#ffffff"
     bordercolor="#666666"
     borderopacity="1"
     objecttolerance="10"
     gridtolerance="10"
     guidetolerance="10"
     inkscape:pageopacity="0"
     inkscape:pageshadow="2"
     inkscape:window-width="1920"
     inkscape:window-height="1025"
     id="namedview246"
     showgrid="false"
     inkscape:zoom="1.888"
     inkscape:cx="50"
     inkscape:cy="62.5"
     inkscape:window-x="0"
     inkscape:window-y="27"
     inkscape:window-maximized="1"
     inkscape:current-layer="svg244" /><path
     d="m 90,50.245763 h -2.5 v -7.5 H 85 v -2.5 h -2.5 v 2.5 2.5 H 85 v 2.5 h -2.5 v -2.5 H 80 v 2.5 2.5 h -2.5 v -5 H 80 v -2.5 -2.5 h -2.5 v 2.5 H 75 v 2.5 h -5 v -2.5 h -2.5 v -2.5 H 65 v 2.5 2.5 h 2.5 v 2.5 H 70 v 5 h -2.5 v -5 H 65 v -2.5 h -2.5 v -5 h -5 v 2.5 H 60 v 5 h 2.5 v 2.5 H 65 v 2.5 h -2.5 v -2.5 H 60 v 2.5 h -2.5 v -2.5 H 60 v -2.5 h -2.5 v -5 H 55 v -2.5 h -2.5 v 2.5 2.5 H 55 v 2.5 h -2.5 v 2.5 H 55 v 2.5 h -2.5 v -2.5 H 50 v 2.5 h -2.5 v -2.5 H 50 v -2.5 h 2.5 v -2.5 H 50 v -2.5 -2.5 H 47.5 45 v 2.5 h 2.5 v 5 H 45 v -5 h -2.5 v 5 H 40 v 2.5 h -2.5 v -2.5 H 40 v -2.5 -2.5 h -2.5 v 2.5 H 35 v 5 h -2.5 v 2.5 H 30 v -2.5 h 2.5 v -5 H 35 v -2.5 h -5 v -2.5 h -2.5 v 5 H 30 v 2.5 h -2.5 v -2.5 H 25 v -5 h -2.5 v 2.5 H 20 v 2.5 h 2.5 v 2.5 H 25 v 2.5 h 2.5 v 2.5 H 25 v 2.5 h 2.5 v 2.5 H 25 v -2.5 h -2.5 v -2.5 H 25 v -2.5 h -2.5 v -2.5 H 20 v 2.5 h -2.5 v -2.5 H 20 v -2.5 h -2.5 v -2.5 H 15 v -2.5 h -2.5 v 5 H 15 v 5 h -2.5 v -5 H 10 v -5 H 7.5 v 5 H 5 v 45 h 90 v -35 h -2.5 v -2.5 H 95 v -2.5 h -2.5 v -2.5 H 95 v -2.5 h -2.5 v -2.5 H 90 Z m -72.5,2.5 H 20 v 2.5 h -2.5 z m -5,0 H 15 v 2.5 h -2.5 z m -5,-5 H 10 v 5 H 7.5 Z m 0,7.5 H 10 v 2.5 H 7.5 Z m 2.5,10 H 7.5 v -2.5 H 10 v -2.5 h 2.5 v 2.5 H 10 Z m 5,5 h -2.5 v -2.5 H 15 Z m 0,-12.5 h 2.5 v 2.5 H 15 Z m 5,7.5 h -2.5 v -2.5 H 20 v -2.5 h 2.5 v 2.5 H 20 Z m 5,5 h -2.5 v -2.5 H 25 Z m 47.5,-22.5 H 75 v 2.5 h -2.5 z m -12.5,7.5 h 2.5 v 2.5 H 60 Z m -10,0 h 2.5 v 2.5 H 50 Z m -10,-2.5 h 2.5 v -2.5 H 45 v 2.5 h -2.5 v 2.5 H 40 Z m -5,0 h 2.5 v 2.5 H 35 Z m -5,2.5 h 2.5 v 2.5 H 30 Z m 0,10 h -2.5 v -2.5 H 30 v -2.5 h 2.5 v 2.5 H 30 Z m 5,5 h -2.5 v -2.5 H 35 Z m 0,-10 v -2.5 h 2.5 v 2.5 H 40 v 2.5 h -2.5 v -2.5 z m 7.5,10 H 40 v -2.5 h 2.5 z m 2.5,-5 h -2.5 v -2.5 H 45 Z m 0,-10 h 2.5 v 2.5 H 45 Z m 2.5,5 H 50 v 2.5 h -2.5 z m 5,10 H 50 v -2.5 h 2.5 z m 2.5,-5 h -2.5 v -2.5 H 55 Z m 0,-10 h 2.5 v 2.5 H 55 Z m 2.5,5 H 60 v 2.5 h -2.5 z m 5,10 H 60 v -1.25 -1.25 h 2.5 z m 2.5,-5 h -2.5 v -2.5 H 65 Z m 2.5,-5 H 65 v -2.5 h 2.5 v -2.5 H 70 v 2.5 h -2.5 z m 5,10 H 70 v -2.5 h 2.5 z m 0,-7.5 H 70 v -2.5 h 2.5 z m 0,-10 H 75 v 2.5 h 2.5 v 2.5 H 75 v -2.5 h -2.5 z m 2.5,7.5 h 2.5 v 2.5 H 75 Z m 5,10 h -2.5 v -2.5 H 80 Z m 5,-7.5 h -2.5 v 2.5 H 80 v -2.5 h 2.5 v -2.5 H 85 Z m 0,-10 h -2.5 v 2.5 H 85 v 2.5 h -2.5 v -2.5 H 80 v -2.5 h 2.5 v -2.5 H 85 Z m 2.5,0 H 90 v 2.5 h -2.5 z m 2.5,17.5 h -2.5 v -2.5 H 90 Z m 2.5,-7.5 H 90 v -2.5 h -2.5 v -2.5 H 90 v 2.5 h 2.5 z"
     id="path2"
     inkscape:connector-curvature="0" /><rect
     x="62.5"
     y="27.745764"
     width="2.5"
     height="7.5"
     id="rect4" /><rect
     x="72.5"
     y="7.7457628"
     width="2.5"
     height="2.5"
     id="rect6" /><rect
     x="50"
     y="7.7457628"
     width="2.5"
     height="2.5"
     id="rect8" /><rect
     x="35"
     y="10.245763"
     width="2.5"
     height="2.5"
     id="rect10" /><rect
     x="30"
     y="15.245764"
     width="2.5"
     height="2.5"
     id="rect12" /><rect
     x="25"
     y="17.745764"
     width="2.5"
     height="2.5"
     id="rect14" /><rect
     x="25"
     y="22.745764"
     width="2.5"
     height="2.5"
     id="rect16" /><rect
     x="25"
     y="27.745764"
     width="2.5"
     height="2.5"
     id="rect18" /><rect
     x="25"
     y="32.745762"
     width="2.5"
     height="2.5"
     id="rect20" /><rect
     x="25"
     y="37.745762"
     width="2.5"
     height="2.5"
     id="rect22" /><rect
     x="22.5"
     y="35.245762"
     width="2.5"
     height="2.5"
     id="rect24" /><rect
     x="20"
     y="37.745762"
     width="2.5"
     height="2.5"
     id="rect26" /><rect
     x="17.5"
     y="35.245762"
     width="2.5"
     height="2.5"
     id="rect28" /><rect
     x="15"
     y="37.745762"
     width="2.5"
     height="2.5"
     id="rect30" /><rect
     x="12.5"
     y="35.245762"
     width="2.5"
     height="2.5"
     id="rect32" /><rect
     x="10"
     y="37.745762"
     width="2.5"
     height="2.5"
     id="rect34" /><rect
     x="7.5000005"
     y="35.245762"
     width="2.5"
     height="2.5"
     id="rect36" /><rect
     x="5"
     y="37.745762"
     width="2.5"
     height="2.5"
     id="rect38" /><rect
     x="5"
     y="30.245762"
     width="2.5"
     height="5"
     id="rect40" /><rect
     x="5"
     y="25.245764"
     width="2.5"
     height="2.5"
     id="rect42" /><rect
     x="5"
     y="20.245764"
     width="2.5"
     height="2.5"
     id="rect44" /><rect
     x="20"
     y="12.745763"
     width="2.5"
     height="2.5"
     id="rect46" /><rect
     x="10"
     y="10.245763"
     width="2.5"
     height="2.5"
     id="rect48" /><rect
     x="10"
     y="17.745764"
     width="2.5"
     height="2.5"
     id="rect50" /><rect
     x="15"
     y="17.745764"
     width="2.5"
     height="2.5"
     id="rect52" /><rect
     x="20"
     y="20.245764"
     width="2.5"
     height="2.5"
     id="rect54" /><rect
     x="17.5"
     y="22.745764"
     width="2.5"
     height="2.5"
     id="rect56" /><rect
     x="20"
     y="25.245764"
     width="2.5"
     height="2.5"
     id="rect58" /><rect
     x="17.5"
     y="27.745764"
     width="2.5"
     height="2.5"
     id="rect60" /><rect
     x="20"
     y="30.245762"
     width="2.5"
     height="5"
     id="rect62" /><rect
     x="15"
     y="32.745762"
     width="2.5"
     height="2.5"
     id="rect64" /><rect
     x="10"
     y="32.745762"
     width="2.5"
     height="2.5"
     id="rect66" /><rect
     x="12.5"
     y="30.245762"
     width="2.5"
     height="2.5"
     id="rect68" /><rect
     x="10"
     y="27.745764"
     width="2.5"
     height="2.5"
     id="rect70" /><rect
     x="12.5"
     y="25.245764"
     width="2.5"
     height="2.5"
     id="rect72" /><rect
     x="27.5"
     y="25.245764"
     width="2.5"
     height="2.5"
     id="rect74" /><rect
     x="27.5"
     y="30.245762"
     width="2.5"
     height="2.5"
     id="rect76" /><rect
     x="27.5"
     y="35.245762"
     width="2.5"
     height="2.5"
     id="rect78" /><rect
     x="30"
     y="32.745762"
     width="5"
     height="2.5"
     id="rect80" /><rect
     x="35"
     y="35.245762"
     width="2.5"
     height="2.5"
     id="rect82" /><rect
     x="40"
     y="35.245762"
     width="2.5"
     height="2.5"
     id="rect84" /><rect
     x="37.5"
     y="37.745762"
     width="2.5"
     height="2.5"
     id="rect86" /><rect
     x="30"
     y="37.745762"
     width="5"
     height="2.5"
     id="rect88" /><rect
     x="17.5"
     y="40.245762"
     width="2.5"
     height="2.5"
     id="rect90" /><rect
     x="35"
     y="40.245762"
     width="2.5"
     height="2.5"
     id="rect92" /><rect
     x="40"
     y="40.245762"
     width="2.5"
     height="2.5"
     id="rect94" /><rect
     x="42.5"
     y="37.745762"
     width="2.5"
     height="2.5"
     id="rect96" /><rect
     x="42.5"
     y="32.745762"
     width="2.5"
     height="2.5"
     id="rect98" /><rect
     x="42.5"
     y="27.745764"
     width="2.5"
     height="2.5"
     id="rect100" /><rect
     x="42.5"
     y="22.745764"
     width="2.5"
     height="2.5"
     id="rect102" /><rect
     x="42.5"
     y="15.245764"
     width="2.5"
     height="2.5"
     id="rect104" /><rect
     x="37.5"
     y="17.745764"
     width="2.5"
     height="2.5"
     id="rect106" /><rect
     x="37.5"
     y="22.745764"
     width="2.5"
     height="2.5"
     id="rect108" /><rect
     x="32.5"
     y="20.245764"
     width="2.5"
     height="2.5"
     id="rect110" /><rect
     x="50"
     y="37.745762"
     width="2.5"
     height="2.5"
     id="rect112" /><rect
     x="50"
     y="22.745764"
     width="2.5"
     height="2.5"
     id="rect114" /><rect
     x="50"
     y="17.745764"
     width="2.5"
     height="2.5"
     id="rect116" /><rect
     x="45"
     y="20.245764"
     width="2.5"
     height="2.5"
     id="rect118" /><rect
     x="45"
     y="25.245764"
     width="2.5"
     height="2.5"
     id="rect120" /><rect
     x="45"
     y="30.245762"
     width="2.5"
     height="2.5"
     id="rect122" /><rect
     x="55"
     y="32.745762"
     width="2.5"
     height="2.5"
     id="rect124" /><rect
     x="55"
     y="27.745764"
     width="2.5"
     height="2.5"
     id="rect126" /><rect
     x="55"
     y="22.745764"
     width="2.5"
     height="2.5"
     id="rect128" /><rect
     x="55"
     y="15.245764"
     width="2.5"
     height="2.5"
     id="rect130" /><rect
     x="60"
     y="10.245763"
     width="2.5"
     height="2.5"
     id="rect132" /><rect
     x="62.5"
     y="17.745764"
     width="2.5"
     height="2.5"
     id="rect134" /><rect
     x="57.5"
     y="20.245764"
     width="2.5"
     height="2.5"
     id="rect136" /><rect
     x="62.5"
     y="22.745764"
     width="2.5"
     height="2.5"
     id="rect138" /><rect
     x="57.5"
     y="25.245764"
     width="2.5"
     height="2.5"
     id="rect140" /><rect
     x="57.5"
     y="30.245762"
     width="2.5"
     height="2.5"
     id="rect142" /><rect
     x="52.5"
     y="35.245762"
     width="2.5"
     height="2.5"
     id="rect144" /><rect
     x="55"
     y="37.745762"
     width="2.5"
     height="2.5"
     id="rect146" /><rect
     x="57.5"
     y="35.245762"
     width="5"
     height="2.5"
     id="rect148" /><rect
     x="62.5"
     y="37.745762"
     width="2.5"
     height="2.5"
     id="rect150" /><rect
     x="65"
     y="35.245762"
     width="2.5"
     height="2.5"
     id="rect152" /><rect
     x="67.5"
     y="32.745762"
     width="2.5"
     height="2.5"
     id="rect154" /><rect
     x="70"
     y="30.245762"
     width="2.5"
     height="2.5"
     id="rect156" /><rect
     x="67.5"
     y="27.745764"
     width="2.5"
     height="2.5"
     id="rect158" /><rect
     x="67.5"
     y="22.745764"
     width="2.5"
     height="2.5"
     id="rect160" /><rect
     x="70"
     y="20.245764"
     width="2.5"
     height="2.5"
     id="rect162" /><rect
     x="67.5"
     y="15.245764"
     width="2.5"
     height="2.5"
     id="rect164" /><rect
     x="75"
     y="17.745764"
     width="2.5"
     height="2.5"
     id="rect166" /><rect
     x="75"
     y="22.745764"
     width="2.5"
     height="2.5"
     id="rect168" /><rect
     x="72.5"
     y="25.245764"
     width="2.5"
     height="2.5"
     id="rect170" /><rect
     x="77.5"
     y="27.745764"
     width="2.5"
     height="2.5"
     id="rect172" /><rect
     x="80"
     y="25.245764"
     width="2.5"
     height="2.5"
     id="rect174" /><rect
     x="85"
     y="22.745764"
     width="2.5"
     height="2.5"
     id="rect176" /><rect
     x="80"
     y="20.245764"
     width="2.5"
     height="2.5"
     id="rect178" /><rect
     x="80"
     y="15.245764"
     width="2.5"
     height="2.5"
     id="rect180" /><rect
     x="87.5"
     y="15.245764"
     width="2.5"
     height="2.5"
     id="rect182" /><rect
     x="87.5"
     y="20.245764"
     width="2.5"
     height="2.5"
     id="rect184" /><rect
     x="87.5"
     y="25.245764"
     width="2.5"
     height="2.5"
     id="rect186" /><rect
     x="85"
     y="27.745764"
     width="2.5"
     height="2.5"
     id="rect188" /><rect
     x="82.5"
     y="30.245762"
     width="2.5"
     height="2.5"
     id="rect190" /><rect
     x="80"
     y="32.745762"
     width="2.5"
     height="2.5"
     id="rect192" /><rect
     x="77.5"
     y="35.245762"
     width="2.5"
     height="2.5"
     id="rect194" /><rect
     x="75"
     y="37.745762"
     width="2.5"
     height="2.5"
     id="rect196" /><rect
     x="70"
     y="40.245762"
     width="5"
     height="2.5"
     id="rect198" /><rect
     x="67.5"
     y="37.745762"
     width="2.5"
     height="2.5"
     id="rect200" /><rect
     x="80"
     y="37.745762"
     width="2.5"
     height="2.5"
     id="rect202" /><rect
     x="82.5"
     y="35.245762"
     width="2.5"
     height="2.5"
     id="rect204" /><rect
     x="85"
     y="32.745762"
     width="2.5"
     height="2.5"
     id="rect206" /><rect
     x="87.5"
     y="35.245762"
     width="2.5"
     height="2.5"
     id="rect208" /><rect
     x="90"
     y="37.745762"
     width="2.5"
     height="2.5"
     id="rect210" /><rect
     x="92.5"
     y="40.245762"
     width="2.5"
     height="2.5"
     id="rect212" /><rect
     x="85"
     y="37.745762"
     width="2.5"
     height="2.5"
     id="rect214" /><rect
     x="87.5"
     y="40.245762"
     width="2.5"
     height="2.5"
     id="rect216" /><rect
     x="92.5"
     y="35.245762"
     width="2.5"
     height="2.5"
     id="rect218" /><rect
     x="92.5"
     y="27.745764"
     width="2.5"
     height="2.5"
     id="rect220" /><rect
     x="92.5"
     y="20.245764"
     width="2.5"
     height="5"
     id="rect222" /><rect
     x="10"
     y="22.745764"
     width="2.5"
     height="2.5"
     id="rect224" /><rect
     x="32.5"
     y="25.245764"
     width="2.5"
     height="5"
     id="rect226" /><rect
     x="50"
     y="27.745764"
     width="2.5"
     height="7.5"
     id="rect228" /><rect
     x="37.5"
     y="27.745764"
     width="2.5"
     height="7.5"
     id="rect230" /><rect
     x="75"
     y="30.245762"
     width="2.5"
     height="5"
     id="rect232" /><rect
     x="90"
     y="30.245762"
     width="2.5"
     height="5"
     id="rect234" /><rect
     x="70"
     y="35.245762"
     width="5"
     height="2.5"
     id="rect236" /><rect
     x="45"
     y="35.245762"
     width="5"
     height="2.5"
     id="rect238" /></svg>