<?xml version="1.0" encoding="UTF-8" standalone="no"?>
<svg
   xmlns:dc="http://purl.org/dc/elements/1.1/"
   xmlns:cc="http://creativecommons.org/ns#"
   xmlns:rdf="http://www.w3.org/1999/02/22-rdf-syntax-ns#"
   xmlns:svg="http://www.w3.org/2000/svg"
   xmlns="http://www.w3.org/2000/svg"
   xmlns:sodipodi="http://sodipodi.sourceforge.net/DTD/sodipodi-0.dtd"
   xmlns:inkscape="http://www.inkscape.org/namespaces/inkscape"
   version="1.1"
   x="0px"
   y="0px"
   viewBox="0 0 100 100"
   enable-background="new 0 0 100 100"
   xml:space="preserve"
   id="svg244"
   sodipodi:docname="Random Dither-white.svg"
   width="100"
   height="100"
   inkscape:version="0.92.3 (2405546, 2018-03-11)"
   inkscape:export-filename="/home/ed/getlarge.eu/frontin/static/icons/Random Dither.svg.png"
   inkscape:export-xdpi="576"
   inkscape:export-ydpi="576"><metadata
     id="metadata250"><rdf:RDF><cc:Work
         rdf:about=""><dc:format>image/svg+xml</dc:format><dc:type
           rdf:resource="http://purl.org/dc/dcmitype/StillImage" /><dc:title></dc:title></cc:Work></rdf:RDF></metadata><defs
     id="defs248" /><sodipodi:namedview
     pagecolor="#ffffff"
     bordercolor="#666666"
     borderopacity="1"
     objecttolerance="10"
     gridtolerance="10"
     guidetolerance="10"
     inkscape:pageopacity="0"
     inkscape:pageshadow="2"
     inkscape:window-width="1920"
     inkscape:window-height="1025"
     id="namedview246"
     showgrid="false"
     inkscape:zoom="3.776"
     inkscape:cx="69.344769"
     inkscape:cy="26.420292"
     inkscape:window-x="0"
     inkscape:window-y="27"
     inkscape:window-maximized="1"
     inkscape:current-layer="svg244" /><path
     d="m 90.374527,50.62029 h -2.5 v -7.5 h -2.5 v -2.5 h -2.5 v 2.5 2.5 h 2.5 v 2.5 h -2.5 v -2.5 h -2.5 v 2.5 2.5 h -2.5 v -5 h 2.5 v -2.5 -2.5 h -2.5 v 2.5 h -2.5 v 2.5 h -5 v -2.5 h -2.5 v -2.5 h -2.5 v 2.5 2.5 h 2.5 v 2.5 h 2.5 v 5 h -2.5 v -5 h -2.5 v -2.5 h -2.5 v -5 h -5 v 2.5 h 2.5 v 5 h 2.5 v 2.5 h 2.5 v 2.5 h -2.5 v -2.5 h -2.5 v 2.5 h -2.5 v -2.5 h 2.5 v -2.5 h -2.5 v -5 h -2.5 v -2.5 h -2.5 v 2.5 2.5 h 2.5 v 2.5 h -2.5 v 2.5 h 2.5 v 2.5 h -2.5 v -2.5 h -2.5 v 2.5 h -2.5 v -2.5 h 2.5 v -2.5 h 2.5 v -2.5 h -2.5 v -2.5 -2.5 h -2.5 -2.5 v 2.5 h 2.5 v 5 h -2.5 v -5 h -2.5 v 5 h -2.5 v 2.5 h -2.5 v -2.5 h 2.5 v -2.5 -2.5 h -2.5 v 2.5 h -2.5 v 5 h -2.5 v 2.5 h -2.5 v -2.5 h 2.5 v -5 h 2.5 v -2.5 h -5 v -2.5 h -2.5 v 5 h 2.5 v 2.5 h -2.5 v -2.5 h -2.5 v -5 h -2.5 v 2.5 h -2.5 v 2.5 h 2.5 v 2.5 h 2.5 v 2.5 h 2.5 v 2.5 h -2.5 v 2.5 h 2.5 v 2.5 h -2.5 v -2.5 h -2.5 v -2.5 h 2.5 v -2.5 h -2.5 v -2.5 h -2.5 v 2.5 h -2.5 v -2.5 h 2.5 v -2.5 h -2.5 v -2.5 h -2.5 v -2.5 h -2.5 v 5 h 2.5 v 5 h -2.5 v -5 h -2.5 v -5 H 7.8745269 v 5 h -2.5 v 45 H 95.374527 v -35 h -2.5 v -2.5 h 2.5 v -2.5 h -2.5 v -2.5 h 2.5 v -2.5 h -2.5 v -2.5 h -2.5 z m -72.5,2.5 h 2.5 v 2.5 h -2.5 z m -5,0 h 2.5 v 2.5 h -2.5 z m -5.0000001,-5 h 2.5000001 v 5 H 7.8745269 Z m 0,7.5 h 2.5000001 v 2.5 H 7.8745269 Z m 2.5000001,10 H 7.8745269 v -2.5 h 2.5000001 v -2.5 h 2.5 v 2.5 h -2.5 z m 5,5 h -2.5 v -2.5 h 2.5 z m 0,-12.5 h 2.5 v 2.5 h -2.5 z m 5,7.5 h -2.5 v -2.5 h 2.5 v -2.5 h 2.5 v 2.5 h -2.5 z m 5,5 h -2.5 v -2.5 h 2.5 z m 47.5,-22.5 h 2.5 v 2.5 h -2.5 z m -12.5,7.5 h 2.5 v 2.5 h -2.5 z m -10,0 h 2.5 v 2.5 h -2.5 z m -10,-2.5 h 2.5 v -2.5 h 2.5 v 2.5 h -2.5 v 2.5 h -2.5 z m -5,0 h 2.5 v 2.5 h -2.5 z m -5,2.5 h 2.5 v 2.5 h -2.5 z m 0,10 h -2.5 v -2.5 h 2.5 v -2.5 h 2.5 v 2.5 h -2.5 z m 5,5 h -2.5 v -2.5 h 2.5 z m 0,-10 v -2.5 h 2.5 v 2.5 h 2.5 v 2.5 h -2.5 v -2.5 z m 7.5,10 h -2.5 v -2.5 h 2.5 z m 2.5,-5 h -2.5 v -2.5 h 2.5 z m 0,-10 h 2.5 v 2.5 h -2.5 z m 2.5,5 h 2.5 v 2.5 h -2.5 z m 5,10 h -2.5 v -2.5 h 2.5 z m 2.5,-5 h -2.5 v -2.5 h 2.5 z m 0,-10 h 2.5 v 2.5 h -2.5 z m 2.5,5 h 2.5 v 2.5 h -2.5 z m 5,10 h -2.5 v -1.25 -1.25 h 2.5 z m 2.5,-5 h -2.5 v -2.5 h 2.5 z m 2.5,-5 h -2.5 v -2.5 h 2.5 v -2.5 h 2.5 v 2.5 h -2.5 z m 5,10 h -2.5 v -2.5 h 2.5 z m 0,-7.5 h -2.5 v -2.5 h 2.5 z m 0,-10 h 2.5 v 2.5 h 2.5 v 2.5 h -2.5 v -2.5 h -2.5 z m 2.5,7.5 h 2.5 v 2.5 h -2.5 z m 5,10 h -2.5 v -2.5 h 2.5 z m 5,-7.5 h -2.5 v 2.5 h -2.5 v -2.5 h 2.5 v -2.5 h 2.5 z m 0,-10 h -2.5 v 2.5 h 2.5 v 2.5 h -2.5 v -2.5 h -2.5 v -2.5 h 2.5 v -2.5 h 2.5 z m 2.5,0 h 2.5 v 2.5 h -2.5 z m 2.5,17.5 h -2.5 v -2.5 h 2.5 z m 2.5,-7.5 h -2.5 v -2.5 h -2.5 v -2.5 h 2.5 v 2.5 h 2.5 z"
     id="path2"
     inkscape:connector-curvature="0"
     style="fill:#f9f9f9" /><rect
     x="62.874527"
     y="28.120291"
     width="2.5"
     height="7.5"
     id="rect4"
     style="fill:#f9f9f9" /><rect
     x="72.874527"
     y="8.1202898"
     width="2.5"
     height="2.5"
     id="rect6"
     style="fill:#f9f9f9" /><rect
     x="50.374527"
     y="8.1202898"
     width="2.5"
     height="2.5"
     id="rect8"
     style="fill:#f9f9f9" /><rect
     x="35.374527"
     y="10.62029"
     width="2.5"
     height="2.5"
     id="rect10"
     style="fill:#f9f9f9" /><rect
     x="30.374527"
     y="15.620291"
     width="2.5"
     height="2.5"
     id="rect12"
     style="fill:#f9f9f9" /><rect
     x="25.374527"
     y="18.120291"
     width="2.5"
     height="2.5"
     id="rect14"
     style="fill:#f9f9f9" /><rect
     x="25.374527"
     y="23.120291"
     width="2.5"
     height="2.5"
     id="rect16"
     style="fill:#f9f9f9" /><rect
     x="25.374527"
     y="28.120291"
     width="2.5"
     height="2.5"
     id="rect18"
     style="fill:#f9f9f9" /><rect
     x="25.374527"
     y="33.120289"
     width="2.5"
     height="2.5"
     id="rect20"
     style="fill:#f9f9f9" /><rect
     x="25.374527"
     y="38.120289"
     width="2.5"
     height="2.5"
     id="rect22"
     style="fill:#f9f9f9" /><rect
     x="22.874527"
     y="35.620289"
     width="2.5"
     height="2.5"
     id="rect24"
     style="fill:#f9f9f9" /><rect
     x="20.374527"
     y="38.120289"
     width="2.5"
     height="2.5"
     id="rect26"
     style="fill:#f9f9f9" /><rect
     x="17.874527"
     y="35.620289"
     width="2.5"
     height="2.5"
     id="rect28"
     style="fill:#f9f9f9" /><rect
     x="15.374527"
     y="38.120289"
     width="2.5"
     height="2.5"
     id="rect30"
     style="fill:#f9f9f9" /><rect
     x="12.874527"
     y="35.620289"
     width="2.5"
     height="2.5"
     id="rect32"
     style="fill:#f9f9f9" /><rect
     x="10.374527"
     y="38.120289"
     width="2.5"
     height="2.5"
     id="rect34"
     style="fill:#f9f9f9" /><rect
     x="7.874527"
     y="35.620289"
     width="2.5"
     height="2.5"
     id="rect36"
     style="fill:#f9f9f9" /><rect
     x="5.374527"
     y="38.120289"
     width="2.5"
     height="2.5"
     id="rect38"
     style="fill:#f9f9f9" /><rect
     x="5.374527"
     y="30.620289"
     width="2.5"
     height="5"
     id="rect40"
     style="fill:#f9f9f9" /><rect
     x="5.374527"
     y="25.620291"
     width="2.5"
     height="2.5"
     id="rect42"
     style="fill:#f9f9f9" /><rect
     x="5.374527"
     y="20.620291"
     width="2.5"
     height="2.5"
     id="rect44"
     style="fill:#f9f9f9" /><rect
     x="20.374527"
     y="13.12029"
     width="2.5"
     height="2.5"
     id="rect46"
     style="fill:#f9f9f9" /><rect
     x="10.374527"
     y="10.62029"
     width="2.5"
     height="2.5"
     id="rect48"
     style="fill:#f9f9f9" /><rect
     x="10.374527"
     y="18.120291"
     width="2.5"
     height="2.5"
     id="rect50"
     style="fill:#f9f9f9" /><rect
     x="15.374527"
     y="18.120291"
     width="2.5"
     height="2.5"
     id="rect52"
     style="fill:#f9f9f9" /><rect
     x="20.374527"
     y="20.620291"
     width="2.5"
     height="2.5"
     id="rect54"
     style="fill:#f9f9f9" /><rect
     x="17.874527"
     y="23.120291"
     width="2.5"
     height="2.5"
     id="rect56"
     style="fill:#f9f9f9" /><rect
     x="20.374527"
     y="25.620291"
     width="2.5"
     height="2.5"
     id="rect58"
     style="fill:#f9f9f9" /><rect
     x="17.874527"
     y="28.120291"
     width="2.5"
     height="2.5"
     id="rect60"
     style="fill:#f9f9f9" /><rect
     x="20.374527"
     y="30.620289"
     width="2.5"
     height="5"
     id="rect62"
     style="fill:#f9f9f9" /><rect
     x="15.374527"
     y="33.120289"
     width="2.5"
     height="2.5"
     id="rect64"
     style="fill:#f9f9f9" /><rect
     x="10.374527"
     y="33.120289"
     width="2.5"
     height="2.5"
     id="rect66"
     style="fill:#f9f9f9" /><rect
     x="12.874527"
     y="30.620289"
     width="2.5"
     height="2.5"
     id="rect68"
     style="fill:#f9f9f9" /><rect
     x="10.374527"
     y="28.120291"
     width="2.5"
     height="2.5"
     id="rect70"
     style="fill:#f9f9f9" /><rect
     x="12.874527"
     y="25.620291"
     width="2.5"
     height="2.5"
     id="rect72"
     style="fill:#f9f9f9" /><rect
     x="27.874527"
     y="25.620291"
     width="2.5"
     height="2.5"
     id="rect74"
     style="fill:#f9f9f9" /><rect
     x="27.874527"
     y="30.620289"
     width="2.5"
     height="2.5"
     id="rect76"
     style="fill:#f9f9f9" /><rect
     x="27.874527"
     y="35.620289"
     width="2.5"
     height="2.5"
     id="rect78"
     style="fill:#f9f9f9" /><rect
     x="30.374527"
     y="33.120289"
     width="5"
     height="2.5"
     id="rect80"
     style="fill:#f9f9f9" /><rect
     x="35.374527"
     y="35.620289"
     width="2.5"
     height="2.5"
     id="rect82"
     style="fill:#f9f9f9" /><rect
     x="40.374527"
     y="35.620289"
     width="2.5"
     height="2.5"
     id="rect84"
     style="fill:#f9f9f9" /><rect
     x="37.874527"
     y="38.120289"
     width="2.5"
     height="2.5"
     id="rect86"
     style="fill:#f9f9f9" /><rect
     x="30.374527"
     y="38.120289"
     width="5"
     height="2.5"
     id="rect88"
     style="fill:#f9f9f9" /><rect
     x="17.874527"
     y="40.620289"
     width="2.5"
     height="2.5"
     id="rect90"
     style="fill:#f9f9f9" /><rect
     x="35.374527"
     y="40.620289"
     width="2.5"
     height="2.5"
     id="rect92"
     style="fill:#f9f9f9" /><rect
     x="40.374527"
     y="40.620289"
     width="2.5"
     height="2.5"
     id="rect94"
     style="fill:#f9f9f9" /><rect
     x="42.874527"
     y="38.120289"
     width="2.5"
     height="2.5"
     id="rect96"
     style="fill:#f9f9f9" /><rect
     x="42.874527"
     y="33.120289"
     width="2.5"
     height="2.5"
     id="rect98"
     style="fill:#f9f9f9" /><rect
     x="42.874527"
     y="28.120291"
     width="2.5"
     height="2.5"
     id="rect100"
     style="fill:#f9f9f9" /><rect
     x="42.874527"
     y="23.120291"
     width="2.5"
     height="2.5"
     id="rect102"
     style="fill:#f9f9f9" /><rect
     x="42.874527"
     y="15.620291"
     width="2.5"
     height="2.5"
     id="rect104"
     style="fill:#f9f9f9" /><rect
     x="37.874527"
     y="18.120291"
     width="2.5"
     height="2.5"
     id="rect106"
     style="fill:#f9f9f9" /><rect
     x="37.874527"
     y="23.120291"
     width="2.5"
     height="2.5"
     id="rect108"
     style="fill:#f9f9f9" /><rect
     x="32.874527"
     y="20.620291"
     width="2.5"
     height="2.5"
     id="rect110"
     style="fill:#f9f9f9" /><rect
     x="50.374527"
     y="38.120289"
     width="2.5"
     height="2.5"
     id="rect112"
     style="fill:#f9f9f9" /><rect
     x="50.374527"
     y="23.120291"
     width="2.5"
     height="2.5"
     id="rect114"
     style="fill:#f9f9f9" /><rect
     x="50.374527"
     y="18.120291"
     width="2.5"
     height="2.5"
     id="rect116"
     style="fill:#f9f9f9" /><rect
     x="45.374527"
     y="20.620291"
     width="2.5"
     height="2.5"
     id="rect118"
     style="fill:#f9f9f9" /><rect
     x="45.374527"
     y="25.620291"
     width="2.5"
     height="2.5"
     id="rect120"
     style="fill:#f9f9f9" /><rect
     x="45.374527"
     y="30.620289"
     width="2.5"
     height="2.5"
     id="rect122"
     style="fill:#f9f9f9" /><rect
     x="55.374527"
     y="33.120289"
     width="2.5"
     height="2.5"
     id="rect124"
     style="fill:#f9f9f9" /><rect
     x="55.374527"
     y="28.120291"
     width="2.5"
     height="2.5"
     id="rect126"
     style="fill:#f9f9f9" /><rect
     x="55.374527"
     y="23.120291"
     width="2.5"
     height="2.5"
     id="rect128"
     style="fill:#f9f9f9" /><rect
     x="55.374527"
     y="15.620291"
     width="2.5"
     height="2.5"
     id="rect130"
     style="fill:#f9f9f9" /><rect
     x="60.374527"
     y="10.62029"
     width="2.5"
     height="2.5"
     id="rect132"
     style="fill:#f9f9f9" /><rect
     x="62.874527"
     y="18.120291"
     width="2.5"
     height="2.5"
     id="rect134"
     style="fill:#f9f9f9" /><rect
     x="57.874527"
     y="20.620291"
     width="2.5"
     height="2.5"
     id="rect136"
     style="fill:#f9f9f9" /><rect
     x="62.874527"
     y="23.120291"
     width="2.5"
     height="2.5"
     id="rect138"
     style="fill:#f9f9f9" /><rect
     x="57.874527"
     y="25.620291"
     width="2.5"
     height="2.5"
     id="rect140"
     style="fill:#f9f9f9" /><rect
     x="57.874527"
     y="30.620289"
     width="2.5"
     height="2.5"
     id="rect142"
     style="fill:#f9f9f9" /><rect
     x="52.874527"
     y="35.620289"
     width="2.5"
     height="2.5"
     id="rect144"
     style="fill:#f9f9f9" /><rect
     x="55.374527"
     y="38.120289"
     width="2.5"
     height="2.5"
     id="rect146"
     style="fill:#f9f9f9" /><rect
     x="57.874527"
     y="35.620289"
     width="5"
     height="2.5"
     id="rect148"
     style="fill:#f9f9f9" /><rect
     x="62.874527"
     y="38.120289"
     width="2.5"
     height="2.5"
     id="rect150"
     style="fill:#f9f9f9" /><rect
     x="65.374527"
     y="35.620289"
     width="2.5"
     height="2.5"
     id="rect152"
     style="fill:#f9f9f9" /><rect
     x="67.874527"
     y="33.120289"
     width="2.5"
     height="2.5"
     id="rect154"
     style="fill:#f9f9f9" /><rect
     x="70.374527"
     y="30.620289"
     width="2.5"
     height="2.5"
     id="rect156"
     style="fill:#f9f9f9" /><rect
     x="67.874527"
     y="28.120291"
     width="2.5"
     height="2.5"
     id="rect158"
     style="fill:#f9f9f9" /><rect
     x="67.874527"
     y="23.120291"
     width="2.5"
     height="2.5"
     id="rect160"
     style="fill:#f9f9f9" /><rect
     x="70.374527"
     y="20.620291"
     width="2.5"
     height="2.5"
     id="rect162"
     style="fill:#f9f9f9" /><rect
     x="67.874527"
     y="15.620291"
     width="2.5"
     height="2.5"
     id="rect164"
     style="fill:#f9f9f9" /><rect
     x="75.374527"
     y="18.120291"
     width="2.5"
     height="2.5"
     id="rect166"
     style="fill:#f9f9f9" /><rect
     x="75.374527"
     y="23.120291"
     width="2.5"
     height="2.5"
     id="rect168"
     style="fill:#f9f9f9" /><rect
     x="72.874527"
     y="25.620291"
     width="2.5"
     height="2.5"
     id="rect170"
     style="fill:#f9f9f9" /><rect
     x="77.874527"
     y="28.120291"
     width="2.5"
     height="2.5"
     id="rect172"
     style="fill:#f9f9f9" /><rect
     x="80.374527"
     y="25.620291"
     width="2.5"
     height="2.5"
     id="rect174"
     style="fill:#f9f9f9" /><rect
     x="85.374527"
     y="23.120291"
     width="2.5"
     height="2.5"
     id="rect176"
     style="fill:#f9f9f9" /><rect
     x="80.374527"
     y="20.620291"
     width="2.5"
     height="2.5"
     id="rect178"
     style="fill:#f9f9f9" /><rect
     x="80.374527"
     y="15.620291"
     width="2.5"
     height="2.5"
     id="rect180"
     style="fill:#f9f9f9" /><rect
     x="87.874527"
     y="15.620291"
     width="2.5"
     height="2.5"
     id="rect182"
     style="fill:#f9f9f9" /><rect
     x="87.874527"
     y="20.620291"
     width="2.5"
     height="2.5"
     id="rect184"
     style="fill:#f9f9f9" /><rect
     x="87.874527"
     y="25.620291"
     width="2.5"
     height="2.5"
     id="rect186"
     style="fill:#f9f9f9" /><rect
     x="85.374527"
     y="28.120291"
     width="2.5"
     height="2.5"
     id="rect188"
     style="fill:#f9f9f9" /><rect
     x="82.874527"
     y="30.620289"
     width="2.5"
     height="2.5"
     id="rect190"
     style="fill:#f9f9f9" /><rect
     x="80.374527"
     y="33.120289"
     width="2.5"
     height="2.5"
     id="rect192"
     style="fill:#f9f9f9" /><rect
     x="77.874527"
     y="35.620289"
     width="2.5"
     height="2.5"
     id="rect194"
     style="fill:#f9f9f9" /><rect
     x="75.374527"
     y="38.120289"
     width="2.5"
     height="2.5"
     id="rect196"
     style="fill:#f9f9f9" /><rect
     x="70.374527"
     y="40.620289"
     width="5"
     height="2.5"
     id="rect198"
     style="fill:#f9f9f9" /><rect
     x="67.874527"
     y="38.120289"
     width="2.5"
     height="2.5"
     id="rect200"
     style="fill:#f9f9f9" /><rect
     x="80.374527"
     y="38.120289"
     width="2.5"
     height="2.5"
     id="rect202"
     style="fill:#f9f9f9" /><rect
     x="82.874527"
     y="35.620289"
     width="2.5"
     height="2.5"
     id="rect204"
     style="fill:#f9f9f9" /><rect
     x="85.374527"
     y="33.120289"
     width="2.5"
     height="2.5"
     id="rect206"
     style="fill:#f9f9f9" /><rect
     x="87.874527"
     y="35.620289"
     width="2.5"
     height="2.5"
     id="rect208"
     style="fill:#f9f9f9" /><rect
     x="90.374527"
     y="38.120289"
     width="2.5"
     height="2.5"
     id="rect210"
     style="fill:#f9f9f9" /><rect
     x="92.874527"
     y="40.620289"
     width="2.5"
     height="2.5"
     id="rect212"
     style="fill:#f9f9f9" /><rect
     x="85.374527"
     y="38.120289"
     width="2.5"
     height="2.5"
     id="rect214"
     style="fill:#f9f9f9" /><rect
     x="87.874527"
     y="40.620289"
     width="2.5"
     height="2.5"
     id="rect216"
     style="fill:#f9f9f9" /><rect
     x="92.874527"
     y="35.620289"
     width="2.5"
     height="2.5"
     id="rect218"
     style="fill:#f9f9f9" /><rect
     x="92.874527"
     y="28.120291"
     width="2.5"
     height="2.5"
     id="rect220"
     style="fill:#f9f9f9" /><rect
     x="92.874527"
     y="20.620291"
     width="2.5"
     height="5"
     id="rect222"
     style="fill:#f9f9f9" /><rect
     x="10.374527"
     y="23.120291"
     width="2.5"
     height="2.5"
     id="rect224"
     style="fill:#f9f9f9" /><rect
     x="32.874527"
     y="25.620291"
     width="2.5"
     height="5"
     id="rect226"
     style="fill:#f9f9f9" /><rect
     x="50.374527"
     y="28.120291"
     width="2.5"
     height="7.5"
     id="rect228"
     style="fill:#f9f9f9" /><rect
     x="37.874527"
     y="28.120291"
     width="2.5"
     height="7.5"
     id="rect230"
     style="fill:#f9f9f9" /><rect
     x="75.374527"
     y="30.620289"
     width="2.5"
     height="5"
     id="rect232"
     style="fill:#f9f9f9" /><rect
     x="90.374527"
     y="30.620289"
     width="2.5"
     height="5"
     id="rect234"
     style="fill:#f9f9f9" /><rect
     x="70.374527"
     y="35.620289"
     width="5"
     height="2.5"
     id="rect236"
     style="fill:#f9f9f9" /><rect
     x="45.374527"
     y="35.620289"
     width="5"
     height="2.5"
     id="rect238"
     style="fill:#f9f9f9" /></svg>