<?xml version="1.0" encoding="UTF-8" standalone="no"?>
<svg
   xmlns:dc="http://purl.org/dc/elements/1.1/"
   xmlns:cc="http://creativecommons.org/ns#"
   xmlns:rdf="http://www.w3.org/1999/02/22-rdf-syntax-ns#"
   xmlns:svg="http://www.w3.org/2000/svg"
   xmlns="http://www.w3.org/2000/svg"
   xmlns:sodipodi="http://sodipodi.sourceforge.net/DTD/sodipodi-0.dtd"
   xmlns:inkscape="http://www.inkscape.org/namespaces/inkscape"
   viewBox="0 0 15 15"
   x="0px"
   y="0px"
   version="1.1"
   id="svg14"
   sodipodi:docname="noun_send_1817323.svg"
   width="15"
   height="15"
   inkscape:version="0.92.3 (2405546, 2018-03-11)">
  <metadata
     id="metadata20">
    <rdf:RDF>
      <cc:Work
         rdf:about="">
        <dc:format>image/svg+xml</dc:format>
        <dc:type
           rdf:resource="http://purl.org/dc/dcmitype/StillImage" />
        <dc:title>Asset 63</dc:title>
      </cc:Work>
    </rdf:RDF>
  </metadata>
  <defs
     id="defs18" />
  <sodipodi:namedview
     pagecolor="#ffffff"
     bordercolor="#666666"
     borderopacity="1"
     objecttolerance="10"
     gridtolerance="10"
     guidetolerance="10"
     inkscape:pageopacity="0"
     inkscape:pageshadow="2"
     inkscape:window-width="1920"
     inkscape:window-height="1025"
     id="namedview16"
     showgrid="false"
     inkscape:zoom="17.163294"
     inkscape:cx="27.499113"
     inkscape:cy="-6.0483886"
     inkscape:window-x="0"
     inkscape:window-y="27"
     inkscape:window-maximized="1"
     inkscape:current-layer="svg14" />
  <title
     id="title2">Asset 63</title>
  <g
     data-name="Layer 2"
     id="g8"
     transform="translate(0.466111,1.4637526)">
    <g
       data-name="Layer 1"
       id="g6">
      <path
         d="m 13.96409,0.68576 -4,10 a 0.49983,0.49983 0 0 1 -0.76368,0.21485 l -4,-3 A 0.5,0.5 0 1 1 5.8,7.10032 L 9.27854,9.7092 12.64768,1.28586 1.65354,4.66819 l 2.124,1.416 a 0.50137,0.50137 0 0 1 0.22266,0.416 v 2.793 L 4.1467,9.1467 a 0.49995,0.49995 0 0 1 0.707,0.707 l -1,1 A 0.5,0.5 0 0 1 3.00019,10.50019 V 6.7678 L 0.22288,4.91623 a 0.49993,0.49993 0 0 1 0.12988,-0.894 l 13,-4 a 0.49959,0.49959 0 0 1 0.61133,0.66357 z"
         id="path4"
         inkscape:connector-curvature="0" />
    </g>
  </g>
</svg>
