<?xml version="1.0" encoding="UTF-8" standalone="no"?>
<svg
   xmlns:dc="http://purl.org/dc/elements/1.1/"
   xmlns:cc="http://creativecommons.org/ns#"
   xmlns:rdf="http://www.w3.org/1999/02/22-rdf-syntax-ns#"
   xmlns:svg="http://www.w3.org/2000/svg"
   xmlns="http://www.w3.org/2000/svg"
   xmlns:sodipodi="http://sodipodi.sourceforge.net/DTD/sodipodi-0.dtd"
   xmlns:inkscape="http://www.inkscape.org/namespaces/inkscape"
   version="1.1"
   x="0px"
   y="0px"
   viewBox="0 0 100 100"
   enable-background="new 0 0 100 100"
   xml:space="preserve"
   id="svg8"
   sodipodi:docname="storm-white.svg"
   width="100"
   height="100"
   inkscape:export-filename="/home/ed/Dev/getlarge.eu/frontin/static/icons/storm.svg.png"
   inkscape:export-xdpi="576"
   inkscape:export-ydpi="576"
   inkscape:version="0.92.3 (2405546, 2018-03-11)"><metadata
     id="metadata14"><rdf:RDF><cc:Work
         rdf:about=""><dc:format>image/svg+xml</dc:format><dc:type
           rdf:resource="http://purl.org/dc/dcmitype/StillImage" /><dc:title></dc:title></cc:Work></rdf:RDF></metadata><defs
     id="defs12" /><sodipodi:namedview
     pagecolor="#ffffff"
     bordercolor="#666666"
     borderopacity="1"
     objecttolerance="10"
     gridtolerance="10"
     guidetolerance="10"
     inkscape:pageopacity="0"
     inkscape:pageshadow="2"
     inkscape:window-width="1920"
     inkscape:window-height="1025"
     id="namedview10"
     showgrid="false"
     inkscape:zoom="1.888"
     inkscape:cx="50"
     inkscape:cy="62.5"
     inkscape:window-x="0"
     inkscape:window-y="27"
     inkscape:window-maximized="1"
     inkscape:current-layer="svg8" /><path
     d="m 68.667,10.22439 c -11.115,0 -20.917,6.94 -24.699,17.177 -2.697,-1.43 -5.694,-2.177 -8.8,-2.177 -10.363,0 -18.798,8.413 -18.834,18.767 -0.599,-0.158 -1.207,-0.266 -1.75,-0.266 -5.285,-10e-4 -9.584,4.298 -9.584,9.582 0,5.284 4.299,9.583 9.583,9.583 h 23.738 l 2.156,4.458 h -7.145 c -0.688,0 -1.329,0.354 -1.694,0.938 -0.366,0.583 -0.406,1.313 -0.106,1.933 l 9.835,20.334 c 0.345,0.714 1.059,1.13 1.802,1.13 0.292,0 0.589,-0.064 0.869,-0.2 0.995,-0.48 1.411,-1.677 0.93,-2.671 l -8.445,-17.462 h 7.145 c 0.688,0 1.329,-0.354 1.694,-0.938 0.366,-0.583 0.406,-1.313 0.106,-1.933 l -2.703,-5.588 h 15.224 l 2.156,4.458 H 53 c -0.688,0 -1.329,0.354 -1.694,0.938 -0.366,0.583 -0.406,1.313 -0.106,1.933 l 9.833,20.333 c 0.345,0.714 1.059,1.13 1.802,1.13 0.292,0 0.589,-0.064 0.869,-0.2 0.995,-0.48 1.411,-1.677 0.93,-2.671 l -8.445,-17.462 h 7.145 c 0.688,0 1.329,-0.354 1.694,-0.938 0.366,-0.583 0.406,-1.313 0.106,-1.933 l -2.703,-5.588 h 6.236 c 14.52,0 26.333,-11.814 26.333,-26.334 0,-14.521 -11.813,-26.333 -26.333,-26.333 z m 0,48.667 h -8.17 L 55.3,48.14539 c -0.481,-0.995 -1.677,-1.411 -2.671,-0.93 -0.995,0.48 -1.411,1.677 -0.93,2.671 l 4.354,9.004 H 40.831 l -5.197,-10.745 c -0.481,-0.995 -1.677,-1.411 -2.671,-0.93 -0.995,0.48 -1.411,1.677 -0.93,2.671 l 4.354,9.004 H 14.583 C 11.505,58.89139 9,56.38639 9,53.30739 c 0,-3.079 2.505,-5.583 5.583,-5.583 0.586,0 2.085,0.545 3.118,1.054 0.674,0.331 1.464,0.189 2.065,-0.258 0.603,-0.447 0.893,-1.264 0.769,-2.003 -0.134,-0.808 -0.202,-1.635 -0.202,-2.461 0,-8.179 6.655,-14.833 14.834,-14.833 3.112,0 6.084,0.951 8.605,2.75 0.489,0.432 1.163,0.603 1.806,0.445 0.714,-0.176 1.274,-0.731 1.458,-1.443 2.538,-9.863 11.433,-16.751 21.631,-16.751 12.314,0 22.333,10.018 22.333,22.333 0,12.314 -10.019,22.334 -22.333,22.334 z"
     id="path2"
     inkscape:connector-curvature="0"
     style="fill:#f9f9f9" /></svg>