<?xml version="1.0" encoding="UTF-8" standalone="no"?>
<svg
   xmlns:dc="http://purl.org/dc/elements/1.1/"
   xmlns:cc="http://creativecommons.org/ns#"
   xmlns:rdf="http://www.w3.org/1999/02/22-rdf-syntax-ns#"
   xmlns:svg="http://www.w3.org/2000/svg"
   xmlns="http://www.w3.org/2000/svg"
   xmlns:sodipodi="http://sodipodi.sourceforge.net/DTD/sodipodi-0.dtd"
   xmlns:inkscape="http://www.inkscape.org/namespaces/inkscape"
   version="1.1"
   x="0px"
   y="0px"
   viewBox="-1430.809 -342.255 100 100"
   enable-background="new -1430.809 -342.255 96 96"
   xml:space="preserve"
   id="svg12"
   sodipodi:docname="noun_Water_1353590.svg"
   width="100"
   height="100"
   inkscape:version="0.92.3 (2405546, 2018-03-11)"><metadata
     id="metadata18"><rdf:RDF><cc:Work
         rdf:about=""><dc:format>image/svg+xml</dc:format><dc:type
           rdf:resource="http://purl.org/dc/dcmitype/StillImage" /><dc:title></dc:title></cc:Work></rdf:RDF></metadata><defs
     id="defs16" /><sodipodi:namedview
     pagecolor="#ffffff"
     bordercolor="#666666"
     borderopacity="1"
     objecttolerance="10"
     gridtolerance="10"
     guidetolerance="10"
     inkscape:pageopacity="0"
     inkscape:pageshadow="2"
     inkscape:window-width="867"
     inkscape:window-height="480"
     id="namedview14"
     showgrid="false"
     inkscape:zoom="1.9666667"
     inkscape:cx="48"
     inkscape:cy="60"
     inkscape:window-x="0"
     inkscape:window-y="27"
     inkscape:window-maximized="0"
     inkscape:current-layer="svg12" /><path
     d="m -1415.7726,-314.95602 c 1.772,2.128 3.781,4.54 7.815,4.54 4.035,0 6.044,-2.412 7.817,-4.54 1.611,-1.933 2.883,-3.46 5.512,-3.46 2.631,0 3.904,1.527 5.515,3.46 1.773,2.128 3.783,4.54 7.819,4.54 4.035,0 6.044,-2.412 7.817,-4.54 1.611,-1.933 2.883,-3.46 5.513,-3.46 2.633,0 3.906,1.527 5.518,3.46 1.774,2.128 3.785,4.54 7.822,4.54 4.038,0 6.048,-2.412 7.822,-4.54 1.612,-1.934 2.885,-3.46 5.517,-3.46 v -3 c -4.037,0 -6.048,2.412 -7.821,4.54 -1.612,1.933 -2.885,3.46 -5.518,3.46 -2.633,0 -3.906,-1.527 -5.518,-3.46 -1.774,-2.128 -3.785,-4.54 -7.822,-4.54 -4.035,0 -6.044,2.412 -7.817,4.54 -1.611,1.933 -2.883,3.46 -5.513,3.46 -2.631,0 -3.903,-1.527 -5.515,-3.46 -1.773,-2.128 -3.784,-4.54 -7.82,-4.54 -4.035,0 -6.044,2.412 -7.817,4.54 -1.611,1.934 -2.883,3.46 -5.513,3.46 -2.629,0 -3.9,-1.527 -5.51,-3.46 -1.773,-2.128 -3.782,-4.54 -7.816,-4.54 v 3 c 2.631,0 3.903,1.527 5.513,3.46 z"
     id="path2"
     inkscape:connector-curvature="0"
     style="fill:#000000" /><path
     d="m -1415.7726,-292.95602 c 1.772,2.128 3.781,4.54 7.815,4.54 4.035,0 6.044,-2.412 7.817,-4.54 1.611,-1.933 2.883,-3.46 5.512,-3.46 2.631,0 3.904,1.527 5.515,3.46 1.773,2.128 3.783,4.54 7.819,4.54 4.035,0 6.044,-2.412 7.817,-4.54 1.611,-1.933 2.883,-3.46 5.513,-3.46 2.633,0 3.906,1.527 5.518,3.46 1.774,2.128 3.785,4.54 7.822,4.54 4.038,0 6.048,-2.412 7.822,-4.54 1.612,-1.934 2.885,-3.46 5.517,-3.46 v -3 c -4.037,0 -6.048,2.412 -7.821,4.54 -1.612,1.933 -2.885,3.46 -5.518,3.46 -2.633,0 -3.906,-1.527 -5.518,-3.46 -1.774,-2.128 -3.785,-4.54 -7.822,-4.54 -4.035,0 -6.044,2.412 -7.817,4.54 -1.611,1.933 -2.883,3.46 -5.513,3.46 -2.631,0 -3.903,-1.527 -5.515,-3.46 -1.773,-2.128 -3.784,-4.54 -7.82,-4.54 -4.035,0 -6.044,2.412 -7.817,4.54 -1.611,1.934 -2.883,3.46 -5.513,3.46 -2.629,0 -3.9,-1.527 -5.51,-3.46 -1.773,-2.128 -3.782,-4.54 -7.816,-4.54 v 3 c 2.631,0 3.903,1.527 5.513,3.46 z"
     id="path4"
     inkscape:connector-curvature="0"
     style="fill:#000000" /><path
     d="m -1415.7726,-270.95602 c 1.772,2.128 3.781,4.54 7.815,4.54 4.035,0 6.044,-2.412 7.817,-4.54 1.611,-1.933 2.883,-3.46 5.512,-3.46 2.631,0 3.904,1.527 5.515,3.46 1.773,2.128 3.783,4.54 7.819,4.54 4.035,0 6.044,-2.412 7.817,-4.54 1.611,-1.933 2.883,-3.46 5.513,-3.46 2.633,0 3.906,1.527 5.518,3.46 1.774,2.128 3.785,4.54 7.822,4.54 4.038,0 6.048,-2.412 7.822,-4.54 1.612,-1.934 2.885,-3.46 5.517,-3.46 v -3 c -4.037,0 -6.048,2.412 -7.821,4.54 -1.612,1.933 -2.885,3.46 -5.518,3.46 -2.633,0 -3.906,-1.527 -5.518,-3.46 -1.774,-2.128 -3.785,-4.54 -7.822,-4.54 -4.035,0 -6.044,2.412 -7.817,4.54 -1.611,1.933 -2.883,3.46 -5.513,3.46 -2.631,0 -3.903,-1.527 -5.515,-3.46 -1.773,-2.128 -3.784,-4.54 -7.82,-4.54 -4.035,0 -6.044,2.412 -7.817,4.54 -1.611,1.934 -2.883,3.46 -5.513,3.46 -2.629,0 -3.9,-1.527 -5.51,-3.46 -1.773,-2.128 -3.782,-4.54 -7.816,-4.54 v 3 c 2.631,0 3.903,1.527 5.513,3.46 z"
     id="path6"
     inkscape:connector-curvature="0"
     style="fill:#000000" /></svg>