<?xml version="1.0" encoding="UTF-8" standalone="no"?>
<svg
   xmlns:dc="http://purl.org/dc/elements/1.1/"
   xmlns:cc="http://creativecommons.org/ns#"
   xmlns:rdf="http://www.w3.org/1999/02/22-rdf-syntax-ns#"
   xmlns:svg="http://www.w3.org/2000/svg"
   xmlns="http://www.w3.org/2000/svg"
   xmlns:sodipodi="http://sodipodi.sourceforge.net/DTD/sodipodi-0.dtd"
   xmlns:inkscape="http://www.inkscape.org/namespaces/inkscape"
   version="1.1"
   x="0px"
   y="0px"
   viewBox="0 0 100 100"
   enable-background="new 0 0 100 100"
   xml:space="preserve"
   id="svg12"
   sodipodi:docname="wind-white.svg"
   inkscape:version="0.92.3 (2405546, 2018-03-11)"><metadata
     id="metadata18"><rdf:RDF><cc:Work
         rdf:about=""><dc:format>image/svg+xml</dc:format><dc:type
           rdf:resource="http://purl.org/dc/dcmitype/StillImage" /><dc:title></dc:title></cc:Work></rdf:RDF></metadata><defs
     id="defs16" /><sodipodi:namedview
     pagecolor="#ffffff"
     bordercolor="#666666"
     borderopacity="1"
     objecttolerance="10"
     gridtolerance="10"
     guidetolerance="10"
     inkscape:pageopacity="0"
     inkscape:pageshadow="2"
     inkscape:window-width="867"
     inkscape:window-height="480"
     id="namedview14"
     showgrid="false"
     inkscape:zoom="2.36"
     inkscape:cx="50"
     inkscape:cy="50"
     inkscape:window-x="0"
     inkscape:window-y="27"
     inkscape:window-maximized="0"
     inkscape:current-layer="svg12" /><path
     fill="#000000"
     d="M52,45.1c-0.4,0-0.7-0.1-1-0.3c-1.4-0.1-3.4-0.3-5.7-0.6c-7.4-0.9-18.5-2.3-29.5-0.4  c-1.1,0.2-2.1-0.6-2.3-1.6c-0.2-1.1,0.6-2.1,1.6-2.3c11.5-1.9,23-0.5,30.6,0.4c2.7,0.3,4.8,0.6,6,0.6c0.3,0,0.6,0.1,0.9,0.2  c2.2-0.3,3.8-2.2,3.8-4.5c0-2.5-2-4.5-4.5-4.5c-1.6,0-3,0.8-3.8,2.1c-0.6,0.9-1.8,1.2-2.8,0.6c-0.9-0.6-1.2-1.8-0.6-2.8  c1.6-2.5,4.3-4,7.2-4c4.7,0,8.5,3.8,8.5,8.5S56.7,45.1,52,45.1z"
     id="path2"
     style="fill:#f9f9f9" /><path
     fill="#000000"
     d="M46.5,65.1c-2.4,0-4.6,1.2-5.9,3.3c-0.6,0.9-0.3,2.2,0.6,2.8c0.9,0.6,2.2,0.3,2.8-0.6  c0.6-0.9,1.5-1.4,2.5-1.4c1.7,0,3,1.3,3,3s-1.3,3-3,3c0,0-0.1,0-0.1,0c0,0-0.1,0-0.1,0c-1,0-2.8-0.3-5-0.7  C34.9,73.2,24,71.2,14,74.1c-1.1,0.3-1.7,1.4-1.4,2.5c0.3,1.1,1.4,1.7,2.5,1.4c9.1-2.6,19-0.8,25.5,0.4c2.5,0.5,4.4,0.8,5.7,0.8  c0,0,0.1,0,0.1,0c0,0,0.1,0,0.1,0c3.9,0,7-3.1,7-7S50.4,65.1,46.5,65.1z"
     id="path4"
     style="fill:#f9f9f9" /><path
     fill="#000000"
     d="M81,36.3c-4.7,0-8.9,2.4-11.4,6.3c-0.6,0.9-0.3,2.2,0.6,2.8c0.9,0.6,2.2,0.3,2.8-0.6c1.8-2.8,4.8-4.4,8-4.4  c5.2,0,9.5,4.3,9.5,9.5s-4.3,9.5-9.5,9.5c-0.1,0-0.1,0-0.2,0c-0.1,0-0.1,0-0.2,0c-2.4,0-6.6-0.8-11.9-1.7C54,54.9,29.3,50.4,6.9,57  c-1.1,0.3-1.7,1.4-1.4,2.5s1.4,1.7,2.5,1.4c21.5-6.3,44.6-2,60,0.8c5.5,1,9.8,1.8,12.6,1.8c0.1,0,0.1,0,0.2,0c0.1,0,0.1,0,0.2,0  c7.5,0,13.5-6.1,13.5-13.5S88.4,36.3,81,36.3z"
     id="path6"
     style="fill:#f9f9f9" /><path
     fill="#000000"
     d="M82.3,25.7c-0.9-2.1-2-3.9-3.1-5.5c1.4-2.3,1.2-5.5-0.5-8.6c-1.9-3.5-6.3-7.2-12.9-7.2  c-5.3,0-10.8,2.4-16.5,7.1c-0.7,0.6-0.9,1.7-0.5,2.5c0.5,0.8,1.5,1.2,2.4,0.9c0,0,0.8-0.3,2-0.3c2.4,0,5.8,1,8.4,5.9  c1.7,3.2,4.5,5,7.8,5c0,0,0,0,0,0c2.5,0,5-1,6.8-2.3c0.8,1.2,1.5,2.5,2.2,4.1c0.3,0.8,1.1,1.2,1.8,1.2c0.3,0,0.5-0.1,0.8-0.2  C82.3,27.8,82.8,26.7,82.3,25.7z M69.6,21.5c-1.9,0-3.3-0.9-4.3-2.9c-2.5-4.7-5.8-6.7-8.5-7.5c3.2-1.8,6.3-2.8,9.1-2.8  c4.8,0,8,2.7,9.4,5.2c0.6,1,0.9,2.1,0.9,3c-3.6-3.4-6.9-4.3-7.1-4.4c-1.1-0.3-2.2,0.3-2.5,1.4c-0.3,1.1,0.3,2.2,1.4,2.5  c0,0,2.9,0.8,5.9,3.9C72.7,20.8,71.2,21.5,69.6,21.5z"
     id="path8"
     style="fill:#f9f9f9" /><path
     fill="#000000"
     d="M86.9,84.8c-0.4-0.7-1.2-1.2-2-1.1c-1.2,0.1-2.6-0.1-3.8-0.3c3.3-7.7-1-14.4-1.2-14.7  c-0.5-0.7-1.4-1.1-2.3-0.8c-0.9,0.3-1.4,1.1-1.4,2c0,1.5-2.1,3.8-4.2,5.6c-1.7-3.8-5.6-5.1-5.8-5.2c-0.7-0.2-1.5-0.1-2,0.4  c-0.5,0.5-0.8,1.3-0.6,2c0.6,2.1-0.6,4-1.8,6c-0.5,0.8-0.9,1.6-1.3,2.4c-1.2,2.7-0.9,5.7,0.8,8.5c-1.6,0.3-3.5,0.2-5.5-0.3  c-1.1-0.3-2.2,0.3-2.5,1.4c-0.3,1.1,0.3,2.2,1.4,2.5c1.6,0.5,3.2,0.7,4.6,0.7c1.7,0,3.4-0.3,4.8-0.8c2,1.8,4.3,2.7,6.9,2.7  c7.7,0,15.2-8.2,15.5-8.5C87.1,86.5,87.2,85.6,86.9,84.8z M71.1,91.6c-1,0-1.9-0.2-2.7-0.6c1.9-1.3,3.4-2.7,4.3-3.9  c0.6-0.9,0.4-2.1-0.5-2.8c-0.9-0.6-2.1-0.4-2.8,0.5c0,0-1.5,2-4.1,3.4c-1-1.4-1.9-3.4-1-5.5c0.3-0.6,0.6-1.2,1.1-1.9  c0.8-1.3,1.8-3,2.2-4.9c0.7,0.7,1.2,1.8,1.3,3.1c0,0.7,0.5,1.3,1.1,1.7c0.6,0.3,1.4,0.3,2-0.1c0.9-0.6,4.1-2.8,6.2-5.5  c0.5,2.3,0.4,5.5-1.6,8.6c-0.3,0.5-0.4,1.2-0.2,1.7c0.2,0.6,0.7,1,1.2,1.2c0.1,0,1.3,0.4,2.9,0.8C77.9,89.4,74.4,91.6,71.1,91.6z"
     id="path10"
     style="fill:#f9f9f9" /></svg>